<svg xmlns="http://www.w3.org/2000/svg" xmlns:xlink="http://www.w3.org/1999/xlink" version="1.1" id="Layer_1" viewBox="0 0 512 512" xml:space="preserve">
<circle style="fill:#FFFFFF;" cx="111.462" cy="210.042" r="8.011"/>
<path style="fill:#9FC7D1;" d="M178.632,173.858l-15.349-35.792c-12.353,0.577-18.945,3.621-26.379,7.13  c-8.74,4.11-18.641,8.772-37.458,8.772s-28.719-4.662-37.458-8.772c-6.489-3.06-12.353-5.76-21.933-6.793l34.342,80.132  c5.968,13.915,16.991,24.681,31.058,30.305c14.067,5.616,29.464,5.431,43.394-0.529C177.583,235.997,190.945,202.6,178.632,173.858z   M111.462,234.075c-13.25,0-24.032-10.783-24.032-24.032c0-13.25,10.782-24.032,24.032-24.032s24.032,10.783,24.032,24.032  C135.494,223.292,124.712,234.075,111.462,234.075z M159.526,177.999h-16.022v-16.022h16.022V177.999z"/>
<g>
	<path style="fill:#EEC97B;" d="M140.677,334.986l33.99-33.99l11.327-11.327c4.678-4.686,4.678-12.305,0-16.991   c-2.347-2.339-5.423-3.509-8.499-3.509c-3.084,0-6.16,1.17-8.507,3.509l-45.309,45.309c-4.686,4.686-4.686,12.313,0,16.999   C128.348,339.656,135.991,339.664,140.677,334.986z"/>
	<path style="fill:#EEC97B;" d="M236.966,391.622c-2.267-2.267-5.287-3.525-8.499-3.525c-3.204,0-6.216,1.25-8.483,3.509   l-33.99,33.998c-0.016,0.016-0.032,0.024-0.04,0.032l-11.295,11.295c-4.678,4.686-4.678,12.305,0,16.991   c3.34,3.341,8.123,4.182,12.305,2.78l1.995-1.899l0.537,0.561c0.729-0.465,1.522-0.801,2.163-1.434l45.309-45.309   C241.653,403.935,241.653,396.309,236.966,391.622z"/>
</g>
<circle style="fill:#FFFFFF;" cx="311.731" cy="186.01" r="8.011"/>
<path style="fill:#9FC7D1;" d="M344.343,160.944l-9.044-22.606c-10.766,0.969-17.191,3.757-24.321,6.929  c-9.172,4.077-19.578,8.7-39.301,8.7c-19.723,0-30.128-4.622-39.301-8.7c-5.864-2.604-11.247-4.951-18.929-6.248l25.618,64.046  c11.608,29.015,44.652,43.202,73.699,31.578C341.787,223.036,355.966,189.975,344.343,160.944z M255.656,186.01h-16.022v-16.022  h16.022V186.01z M279.688,210.042h-16.022v-16.022h16.022V210.042z M287.699,186.01c0-13.25,10.782-24.032,24.032-24.032  c13.25,0,24.032,10.782,24.032,24.032s-10.783,24.032-24.032,24.032C298.481,210.042,287.699,199.26,287.699,186.01z"/>
<g>
	<path style="fill:#EEC97B;" d="M379.822,290.15c6.625,0,12.016-5.391,12.016-12.016c0-6.625-5.391-12.016-12.016-12.016h-64.086   c-6.625,0-12.016,5.391-12.016,12.016c0,6.625,5.391,12.016,12.016,12.016h16.022H379.822z"/>
	<path style="fill:#EEC97B;" d="M347.779,346.225c-6.625,0-12.016,5.391-12.016,12.016c0,6.625,5.391,12.016,12.016,12.016h16.022   h48.065c6.625,0,12.016-5.391,12.016-12.016c0-6.625-5.391-12.016-12.016-12.016h-16.022H347.779z"/>
	<path style="fill:#EEC97B;" d="M411.865,386.279h-48.065c-6.625,0-12.016,5.391-12.016,12.016s5.391,12.016,12.016,12.016h64.086   c6.625,0,12.016-5.391,12.016-12.016s-5.391-12.016-12.016-12.016H411.865z"/>
	<path style="fill:#EEC97B;" d="M183.559,56.276c3.941-5.624,8.844-10.518,14.459-14.459c-5.616-3.941-10.51-8.844-14.459-14.459   c-3.941,5.616-8.836,10.518-14.459,14.459C174.723,45.757,179.617,50.652,183.559,56.276z"/>
	<path style="fill:#EEC97B;" d="M431.892,210.042v-31.234c-18.257,3.725-32.043,19.899-32.043,39.245v40.054h-0.465   c5.215,5.095,8.475,12.176,8.475,20.027c0,4.903-1.378,9.437-3.597,13.45c11.327,3.605,19.618,14.099,19.618,26.604   c0,4.903-1.378,9.437-3.597,13.45c11.327,3.605,19.618,14.099,19.618,26.604c0,4.903-1.378,9.437-3.597,13.45   c11.327,3.605,19.618,14.099,19.618,26.604c0,4.318-1.065,8.363-2.812,12.016h31.538l13.674-13.674   c1.506-1.506,3.533-2.347,5.664-2.347H512V266.118h-24.032C457.054,266.118,431.892,240.956,431.892,210.042z"/>
	<path style="fill:#EEC97B;" d="M379.822,306.171h-48.065c-6.625,0-12.016,5.391-12.016,12.016s5.391,12.016,12.016,12.016h16.022   h48.065c6.625,0,12.016-5.391,12.016-12.016s-5.391-12.016-12.016-12.016H379.822z"/>
	<path style="fill:#EEC97B;" d="M132.178,490.419h19.45l20.299-19.362c-3.116-1.362-6.048-3.252-8.596-5.792   c-8.836-8.844-10.398-22.126-4.935-32.684c-4.406-1.266-8.588-3.501-12.056-6.961c-8.844-8.836-10.406-22.11-4.951-32.668   c-4.486-1.298-8.644-3.589-12.04-6.985c-5.295-5.295-8.211-12.337-8.211-19.827c0-4.574,1.202-8.916,3.252-12.857   c-4.398-1.274-8.58-3.509-12.032-6.961c-5.551-5.551-8.259-12.865-8.171-20.155l-0.32,0.328l-28.334-28.334   c-13.674-13.682-34.863-15.373-50.412-5.095l22.094,22.086c21.861,21.861,21.861,57.445,0,79.299L12.2,429.465l107.272,68.965   h2.131l4.502-5.223C127.627,491.436,129.846,490.419,132.178,490.419z"/>
	<path style="fill:#EEC97B;" d="M174.643,413.291l34.006-35.023h0.008l11.319-10.31c2.267-2.267,3.525-4.782,3.525-7.995   c0-3.204-1.25-5.976-3.525-8.243c-2.275-2.267-5.287-3.397-8.491-3.397c-3.204,0-6.224,1.314-8.499,3.581l-45.317,45.341   c-4.686,4.686-4.686,11.824,0,16.51C162.346,418.442,169.956,417.938,174.643,413.291z"/>
	<path style="fill:#EEC97B;" d="M157.668,374.631l45.317-45.309c4.686-4.686,4.686-12.313,0-16.999   c-2.267-2.267-5.287-3.517-8.499-3.517c-3.204,0-6.224,1.25-8.499,3.517l-33.99,33.99l-11.327,11.327   c-2.267,2.267-3.517,5.287-3.517,8.499c0,3.204,1.25,6.224,3.517,8.499C145.211,379.165,153.126,379.165,157.668,374.631z"/>
</g>
<g>
	<path style="fill:#3C4A53;" d="M487.968,250.096c-22.086,0-40.054-17.968-40.054-40.054v-40.054c0-4.43-3.581-8.011-8.011-8.011   c-30.914,0-56.075,25.162-56.075,56.075v32.452c-1.322-0.192-2.636-0.409-4.005-0.409h-55.13l-1.354-2.7   c34.046-16.454,50.131-56.764,35.88-92.396L319.165,54.866c-1.642-4.118-6.345-6.112-10.414-4.47L188.589,98.46   c-4.11,1.642-6.112,6.304-4.47,10.414l40.054,100.135c11.367,28.406,38.74,45.717,67.603,45.717c3.324,0,6.673-0.312,10.021-0.785   c-8.387,4.855-14.115,13.819-14.115,24.193c0,12.505,8.283,22.999,19.61,26.604c-2.219,4.013-3.589,8.555-3.589,13.45   c0,12.505,8.283,22.999,19.61,26.604c-2.219,4.013-3.589,8.556-3.589,13.45c0,12.505,8.283,22.999,19.61,26.604   c-2.219,4.013-3.589,8.556-3.589,13.45c0,15.461,12.577,28.038,28.038,28.038h14.604l11.031,27.581l-32.612,13.042l5.944,14.876   l80.108-32.043l-5.944-14.876l-32.604,13.05l-8.652-21.629h32.227c1.37,0,2.684-0.216,4.005-0.409v0.409h56.075   c2.131,0,4.158-0.849,5.664-2.347l13.674-13.674H512v-8.011v-8.011h-8.011c-2.131,0-4.166,0.841-5.664,2.347l-13.674,13.674   h-31.538c1.746-3.653,2.812-7.698,2.812-12.016c0-12.505-8.283-22.999-19.618-26.604c2.219-4.013,3.597-8.556,3.597-13.45   c0-12.505-8.283-22.999-19.618-26.604c2.219-4.013,3.597-8.555,3.597-13.45c0-12.505-8.283-22.999-19.618-26.604   c2.219-4.013,3.597-8.556,3.597-13.45c0-7.851-3.26-14.932-8.475-20.027h0.465v-40.054c0-19.346,13.787-35.528,32.043-39.245   v31.234c0,30.914,25.162,56.075,56.075,56.075H512v-8.011v-8.011H487.968z M201.983,110.364l105.285-42.113l21.877,54.697   c-10.823,1.578-18.096,4.758-24.673,7.674c-8.844,3.925-16.47,7.322-32.796,7.322s-23.952-3.397-32.796-7.322   c-8.003-3.557-16.951-7.522-32.187-8.475L201.983,110.364z M239.065,203.065l-25.618-64.046c7.682,1.298,13.066,3.645,18.929,6.248   c9.172,4.077,19.578,8.7,39.301,8.7c19.722,0,30.129-4.622,39.301-8.7c7.138-3.172,13.554-5.96,24.321-6.929l9.044,22.606   c11.616,29.031-2.555,62.091-31.578,73.699C283.717,246.259,250.673,232.08,239.065,203.065z M303.72,278.134   c0-6.625,5.391-12.016,12.016-12.016h64.086c6.625,0,12.016,5.391,12.016,12.016c0,6.625-5.391,12.016-12.016,12.016h-48.065   h-16.022C309.111,290.15,303.72,284.759,303.72,278.134z M439.903,398.295c0,6.625-5.391,12.016-12.016,12.016h-64.086   c-6.625,0-12.016-5.391-12.016-12.016s5.391-12.016,12.016-12.016h48.065h16.022C434.512,386.279,439.903,391.67,439.903,398.295z    M423.882,358.241c0,6.625-5.391,12.016-12.016,12.016h-48.065h-16.022c-6.625,0-12.016-5.391-12.016-12.016   c0-6.625,5.391-12.016,12.016-12.016h48.065h16.022C418.49,346.225,423.882,351.616,423.882,358.241z M407.86,318.188   c0,6.625-5.391,12.016-12.016,12.016h-48.065h-16.022c-6.625,0-12.016-5.391-12.016-12.016s5.391-12.016,12.016-12.016h48.065   h16.022C402.469,306.171,407.86,311.563,407.86,318.188z"/>
	<path style="fill:#3C4A53;" d="M249.671,457.583l-11.704-27.309l10.326-10.326c10.935-10.927,10.935-28.727,0-39.653   c-3.389-3.397-7.626-5.576-12.128-6.793c2.107-3.989,3.348-8.395,3.348-13.026c0-7.49-2.916-14.532-8.211-19.827   c-3.397-3.397-7.642-5.583-12.136-6.801c5.575-10.582,4.045-23.968-4.855-32.86c-3.397-3.397-7.642-5.583-12.144-6.801   c5.567-10.582,4.037-23.96-4.847-32.844c-7.346-7.346-17.744-9.629-27.116-7.114c26.123-19.666,36.593-55.306,23.151-86.676   l-42.489-99.125c-1.746-4.085-6.481-5.976-10.51-4.206l-118.96,50.981c-1.955,0.833-3.493,2.419-4.286,4.39   s-0.761,4.174,0.08,6.128l42.489,99.125c7.65,17.856,21.797,31.659,39.83,38.876c8.74,3.501,17.888,5.239,27.02,5.239   c8.059,0,16.094-1.434,23.856-4.15l0.953,2.868l-38.98,38.98c-0.969,0.969-1.746,2.051-2.547,3.116l-22.951-22.943   c-21.845-21.853-57.421-21.861-79.299,0c-1.506,1.506-2.347,3.533-2.347,5.664s0.841,4.166,2.347,5.664l28.326,28.318   c15.613,15.621,15.613,41.031,0,56.644L0,419.011l11.327,11.327l0.873-0.873l35.015-35.015c21.861-21.861,21.861-57.437,0-79.299   l-22.094-22.086c15.541-10.278,36.737-8.588,50.412,5.095l28.326,28.318l0.32-0.328c-0.088,7.29,2.62,14.612,8.171,20.155   c3.461,3.461,7.634,5.696,12.032,6.961c-2.051,3.941-3.252,8.283-3.252,12.857c0,7.49,2.916,14.523,8.211,19.827   c3.397,3.397,7.554,5.688,12.04,6.985c-5.455,10.558-3.893,23.832,4.951,32.668c3.469,3.461,7.65,5.696,12.056,6.961   c-5.463,10.558-3.901,23.84,4.935,32.684c2.547,2.547,5.487,4.438,8.596,5.792l-20.291,19.378h-19.45   c-2.331,0-4.55,1.017-6.072,2.788l-4.494,5.223l-1.162,1.354l12.144,10.454l3.26-3.797h18.977c2.059,0,4.037-0.793,5.527-2.211   l35.704-34.054c2.475-1.29,4.846-2.836,6.921-4.911l22.783-22.791l9.18,21.421l-32.283,13.843l6.304,14.724l79.299-33.99   l-6.304-14.724L249.671,457.583z M157.668,397.286l45.317-45.309c2.267-2.267,5.287-3.525,8.499-3.525   c3.204,0,6.224,1.25,8.491,3.525c2.267,2.267,3.525,5.287,3.525,8.491s-1.25,5.215-3.525,7.49l-11.319,10.31h-0.008l-34.006,35.023   c-4.686,4.646-12.297,5.167-16.975,0.489C152.982,409.094,152.982,401.972,157.668,397.286z M139.299,82.102l17.335,40.446   c-12.048,1.386-19.69,4.919-26.556,8.139c-8.259,3.901-15.405,7.258-30.633,7.258s-22.374-3.357-30.633-7.25   c-6.465-3.036-13.586-6.369-24.449-7.899L139.299,82.102z M148.848,248.31c-13.931,5.96-29.327,6.152-43.394,0.529   c-14.067-5.624-25.09-16.39-31.058-30.305l-34.342-80.132c9.581,1.025,15.445,3.733,21.933,6.793   c8.74,4.11,18.641,8.772,37.458,8.772s28.719-4.662,37.458-8.772c7.442-3.509,14.027-6.553,26.379-7.13l15.349,35.792   C190.945,202.6,177.583,235.997,148.848,248.31z M123.678,334.986c-4.686-4.686-4.686-12.313,0-16.999l45.309-45.309   c2.347-2.339,5.423-3.509,8.507-3.509c3.076,0,6.144,1.17,8.499,3.509c4.678,4.686,4.678,12.305,0,16.991l-11.327,11.327   l-33.99,33.99C135.991,339.664,128.348,339.656,123.678,334.986z M140.677,374.631c-2.267-2.267-3.517-5.287-3.517-8.499   c0-3.204,1.25-6.224,3.517-8.499l11.327-11.327l33.99-33.99c2.267-2.267,5.287-3.517,8.499-3.517c3.204,0,6.224,1.25,8.499,3.517   c4.686,4.686,4.686,12.313,0,16.999l-45.317,45.309C153.126,379.165,145.211,379.165,140.677,374.631z M191.658,453.93   c-0.641,0.641-1.434,0.969-2.163,1.434l-0.537-0.561l-1.995,1.899c-4.182,1.402-8.964,0.561-12.305-2.78   c-4.678-4.686-4.678-12.305,0-16.991l11.295-11.295c0.016-0.016,0.032-0.024,0.04-0.032l33.99-33.998   c2.267-2.259,5.287-3.509,8.483-3.509c3.204,0,6.224,1.25,8.499,3.525c4.686,4.686,4.686,12.313,0,16.999L191.658,453.93z"/>
	<path style="fill:#3C4A53;" d="M148.984,49.41c12.665,4.222,22.759,14.315,26.98,26.98c1.089,3.276,4.142,5.479,7.594,5.479   s6.505-2.203,7.594-5.479c4.222-12.665,14.315-22.759,26.98-26.98c3.276-1.089,5.479-4.142,5.479-7.594s-2.203-6.505-5.479-7.594   c-12.665-4.222-22.759-14.315-26.98-26.98c-1.081-3.276-4.142-5.479-7.594-5.479s-6.513,2.203-7.594,5.479   c-4.222,12.665-14.315,22.759-26.98,26.98c-3.276,1.081-5.479,4.142-5.479,7.594C143.505,45.269,145.708,48.321,148.984,49.41z    M183.559,27.357c3.941,5.616,8.844,10.518,14.459,14.459c-5.616,3.941-10.51,8.836-14.459,14.459   c-3.941-5.624-8.836-10.518-14.459-14.459C174.723,37.875,179.617,32.972,183.559,27.357z"/>
	<path style="fill:#3C4A53;" d="M111.462,186.01c-13.25,0-24.032,10.783-24.032,24.032c0,13.25,10.782,24.032,24.032,24.032   s24.032-10.783,24.032-24.032C135.494,196.792,124.712,186.01,111.462,186.01z M111.462,218.053c-4.422,0-8.011-3.589-8.011-8.011   c0-4.422,3.589-8.011,8.011-8.011s8.011,3.589,8.011,8.011C119.473,214.464,115.884,218.053,111.462,218.053z"/>
	<path style="fill:#3C4A53;" d="M335.763,186.01c0-13.25-10.783-24.032-24.032-24.032c-13.25,0-24.032,10.782-24.032,24.032   s10.782,24.032,24.032,24.032C324.981,210.042,335.763,199.26,335.763,186.01z M311.731,194.021c-4.422,0-8.011-3.589-8.011-8.011   c0-4.422,3.589-8.011,8.011-8.011c4.422,0,8.011,3.589,8.011,8.011C319.742,190.432,316.153,194.021,311.731,194.021z"/>
	<rect x="143.505" y="161.978" style="fill:#3C4A53;" width="16.022" height="16.022"/>
	<rect x="239.634" y="169.988" style="fill:#3C4A53;" width="16.022" height="16.022"/>
	<rect x="263.666" y="194.021" style="fill:#3C4A53;" width="16.022" height="16.022"/>

		<rect x="83.425" y="22.47" transform="matrix(-0.5145 0.8575 -0.8575 -0.5145 177.7751 -9.0033)" style="fill:#3C4A53;" width="16.022" height="46.711"/>

		<rect x="115.473" y="9.106" transform="matrix(-0.9487 0.3162 -0.3162 -0.9487 247.5081 3.3805)" style="fill:#3C4A53;" width="16.014" height="25.33"/>

		<rect x="228.296" y="37.809" transform="matrix(-0.8574 0.5146 -0.5146 -0.8574 491.0016 -44.3959)" style="fill:#3C4A53;" width="46.71" height="16.021"/>
	<rect x="415.871" y="17.784" style="fill:#3C4A53;" width="16.022" height="32.043"/>
	<rect x="415.871" y="65.848" style="fill:#3C4A53;" width="16.022" height="16.022"/>
	<rect x="415.871" y="97.892" style="fill:#3C4A53;" width="16.022" height="32.043"/>
	<rect x="447.914" y="65.848" style="fill:#3C4A53;" width="32.043" height="16.022"/>
	<rect x="367.806" y="65.848" style="fill:#3C4A53;" width="32.043" height="16.022"/>
</g>
</svg>